<mxfile host="65bd71144e">
    <diagram id="ygFkDZHLJnuzZTnh9-o6" name="Page-1">
        <mxGraphModel dx="1589" dy="922" grid="1" gridSize="10" guides="1" tooltips="1" connect="1" arrows="1" fold="1" page="1" pageScale="1" pageWidth="850" pageHeight="1100" math="0" shadow="0">
            <root>
                <mxCell id="0"/>
                <mxCell id="1" parent="0"/>
                <mxCell id="3" value="" style="whiteSpace=wrap;html=1;aspect=fixed;" vertex="1" parent="1">
                    <mxGeometry x="90" y="120" width="660" height="660" as="geometry"/>
                </mxCell>
                <mxCell id="2" value="WELCOME&lt;br&gt;PLEASE LOGIN" style="whiteSpace=wrap;html=1;aspect=fixed;" vertex="1" parent="1">
                    <mxGeometry x="250" y="270" width="340" height="340" as="geometry"/>
                </mxCell>
            </root>
        </mxGraphModel>
    </diagram>
</mxfile>